<?xml version="1.0" standalone="no"?>
<!DOCTYPE svg PUBLIC "-//W3C//DTD SVG 20010904//EN"
 "http://www.w3.org/TR/2001/REC-SVG-20010904/DTD/svg10.dtd">
<svg version="1.0" xmlns="http://www.w3.org/2000/svg"
 width="700.000000pt" height="700.000000pt" viewBox="0 0 700.000000 700.000000"
 preserveAspectRatio="xMidYMid meet">
<metadata>
Created by potrace 1.11, written by Peter Selinger 2001-2013
</metadata>
<g transform="translate(0.000000,700.000000) scale(0.100000,-0.100000)"
fill="#000000" stroke="none">
<path d="M302 6980 c-58 -36 -61 -55 -61 -390 0 -167 -3 -305 -6 -308 -3 -3
-37 -6 -75 -7 -38 -1 -81 -8 -95 -15 -40 -22 -67 -73 -61 -116 13 -80 49 -106
153 -109 41 -2 76 -5 80 -8 3 -3 5 -66 4 -139 0 -73 0 -179 -1 -234 l0 -102
-86 -3 c-84 -4 -86 -5 -119 -41 -30 -33 -33 -42 -30 -83 6 -80 45 -108 158
-115 l78 -5 0 -234 c0 -129 -2 -235 -3 -236 -2 -2 -38 -5 -80 -7 -49 -3 -86
-11 -103 -22 -35 -23 -57 -78 -50 -119 14 -72 68 -104 173 -101 l61 2 3 -127
c2 -69 1 -178 -2 -241 l-5 -114 -70 -2 c-43 -1 -83 -8 -101 -17 -42 -22 -67
-76 -58 -124 13 -72 69 -105 173 -102 28 1 53 0 56 -2 4 -5 7 -154 6 -361 l-1
-118 -65 0 c-36 0 -81 -6 -100 -14 -47 -20 -77 -70 -71 -118 11 -78 57 -109
167 -111 l69 0 0 -44 c1 -55 1 -183 0 -325 l0 -113 -79 -1 c-90 -2 -120 -16
-146 -71 -22 -46 -12 -98 25 -133 34 -31 62 -39 143 -36 l57 1 1 -165 c1 -179
-1 -314 -4 -317 -2 -1 -38 -3 -82 -4 -74 -2 -81 -4 -114 -35 -33 -29 -36 -37
-35 -84 0 -44 5 -56 32 -83 31 -30 37 -32 117 -36 l85 -3 1 -117 c0 -195 -2
-355 -6 -359 -2 -2 -37 -5 -77 -6 -58 -2 -81 -7 -105 -24 -73 -52 -63 -169 18
-202 16 -7 60 -13 97 -14 l67 -1 5 -115 c3 -63 4 -171 2 -241 l-3 -125 -74 -1
c-52 -1 -84 -7 -105 -19 -40 -24 -64 -76 -55 -122 13 -70 57 -98 160 -101 38
-2 71 -4 73 -5 1 -2 3 -35 4 -75 2 -85 22 -125 74 -147 45 -19 96 -10 129 24
31 31 41 68 39 143 l-2 59 169 1 c93 0 199 0 235 1 36 0 68 -3 72 -6 3 -4 8
-37 9 -74 2 -37 4 -73 5 -80 3 -25 57 -70 92 -76 44 -8 99 13 122 49 12 19 17
48 18 106 l1 79 110 1 c173 1 368 -1 371 -4 2 -1 4 -35 5 -74 3 -92 19 -127
70 -147 49 -20 60 -20 103 1 48 22 66 65 66 152 l0 71 243 0 242 0 1 -78 c0
-105 25 -143 103 -157 82 -14 139 56 137 170 l-1 60 65 5 c36 3 144 4 241 2
l177 -3 0 -69 c0 -112 35 -160 117 -165 80 -5 125 55 125 170 l0 65 143 1
c251 1 330 0 335 -6 3 -3 5 -29 4 -58 -2 -108 32 -164 105 -171 89 -9 134 44
136 160 l2 74 78 1 c97 0 181 0 305 0 l97 -1 1 -69 c0 -38 6 -83 13 -99 24
-58 93 -84 154 -58 53 22 70 56 73 142 1 41 3 77 6 79 3 3 110 5 239 6 l234 1
5 -81 c7 -95 26 -129 88 -150 36 -13 44 -13 81 3 53 24 71 64 71 155 l0 71 48
0 c232 2 426 0 430 -5 3 -3 7 -36 7 -73 2 -83 23 -128 70 -148 48 -20 75 -18
116 10 42 29 57 69 55 154 l-2 62 136 0 c74 1 214 1 311 1 146 0 182 3 210 17
46 23 74 77 65 124 -7 39 -51 89 -83 95 -10 2 -157 5 -328 6 l-309 2 -1 250 0
250 44 48 c99 107 101 245 5 342 -86 85 -217 95 -315 24 -13 -10 -59 3 -235
62 l-219 74 -3 2384 -2 2385 36 30 c74 60 105 186 68 274 -65 156 -284 198
-395 75 -48 -53 -62 -85 -65 -150 -3 -70 11 -115 54 -171 l26 -34 -27 -146
c-15 -81 -29 -158 -31 -172 -3 -14 -12 -68 -21 -120 -9 -52 -18 -97 -20 -100
-1 -3 -6 -27 -9 -55 -4 -27 -11 -69 -17 -93 -5 -23 -12 -59 -15 -78 -3 -20 -8
-46 -10 -58 -5 -29 -25 -135 -30 -166 -13 -73 -25 -138 -29 -160 -3 -14 -16
-88 -30 -165 -26 -144 -31 -175 -40 -222 -3 -16 -14 -77 -25 -138 -11 -60 -22
-121 -25 -135 -7 -32 -14 -71 -20 -112 -3 -18 -12 -67 -20 -108 -8 -41 -17
-88 -20 -105 -12 -70 -41 -231 -50 -282 -3 -16 -14 -77 -25 -138 -11 -60 -22
-121 -25 -135 -3 -14 -8 -38 -10 -55 -3 -16 -17 -93 -31 -170 -14 -77 -28
-151 -30 -165 -3 -14 -9 -47 -14 -75 -5 -27 -12 -66 -15 -85 -3 -19 -17 -95
-30 -168 -14 -73 -25 -137 -25 -143 0 -5 -18 -20 -39 -34 -76 -47 -116 -112
-123 -195 l-3 -45 -224 -168 c-176 -133 -228 -167 -249 -165 -23 3 -107 125
-619 893 -326 490 -596 895 -601 900 -19 23 -20 33 -7 80 39 153 -74 298 -232
297 -135 -1 -250 -123 -236 -252 2 -25 5 -55 6 -68 1 -15 -72 -121 -228 -331
-217 -292 -232 -310 -262 -310 -18 -1 -53 -8 -78 -17 l-46 -15 -72 42 c-40 23
-85 49 -102 59 -16 9 -178 104 -360 210 -181 106 -404 236 -495 288 -91 52
-167 97 -170 99 -3 3 -5 644 -6 1426 0 1308 -2 1425 -17 1457 -31 64 -106 87
-165 50z m5004 -5358 c-4 -3 -464 146 -474 154 -2 1 -4 124 -4 274 l1 271 41
40 c23 22 49 57 57 77 34 79 20 180 -35 249 -29 38 -29 38 -17 98 7 33 15 79
18 102 4 22 9 52 11 65 3 12 8 37 11 53 3 17 24 129 46 250 35 194 63 348 73
410 2 11 11 58 20 105 8 47 18 99 21 115 5 29 8 48 20 105 2 14 7 41 10 60 3
19 10 55 15 80 5 25 12 61 14 80 3 19 10 58 15 85 6 28 13 64 16 80 13 74 45
252 49 271 2 12 7 39 10 60 3 22 8 50 11 64 12 56 16 81 43 230 l27 155 3
-1764 c1 -970 0 -1766 -2 -1769z m-4710 2084 c60 -34 133 -77 162 -95 29 -17
55 -31 58 -31 3 0 17 -8 32 -19 15 -10 113 -68 217 -129 105 -60 204 -118 222
-128 18 -11 88 -52 156 -91 l125 -73 6 -44 c8 -49 54 -126 91 -150 l25 -16 0
-551 c0 -437 -3 -550 -12 -546 -7 2 -91 17 -187 32 l-173 29 -23 37 c-69 109
-197 148 -311 95 -79 -37 -120 -95 -138 -199 -3 -16 4 -57 15 -92 l19 -63 -91
-184 c-50 -101 -95 -190 -99 -198 -5 -8 -52 -103 -106 -210 -53 -107 -97 -196
-98 -197 -1 -2 -2 648 -2 1442 0 795 0 1445 2 1445 1 0 50 -29 110 -64z m1818
-976 c0 -555 -2 -1012 -5 -1014 -2 -2 -27 0 -54 5 -28 5 -66 12 -85 14 -19 3
-73 11 -120 20 -47 8 -115 20 -152 26 l-68 12 0 567 0 568 34 26 c68 51 105
174 76 250 -9 24 7 47 181 281 105 140 192 255 193 255 0 0 1 -454 0 -1010z
m796 143 c494 -741 545 -822 543 -856 0 -21 -6 -44 -13 -52 -6 -8 -89 -72
-183 -142 -95 -70 -178 -134 -186 -141 -8 -8 -21 -10 -35 -5 -11 4 -48 8 -81
7 -64 0 -113 -18 -155 -57 -18 -17 -34 -22 -55 -20 -85 11 -379 63 -384 69 -7
7 -8 2014 -1 2014 3 0 251 -368 550 -817z m1376 -798 c0 -118 -2 -215 -4 -215
-18 0 -351 116 -362 126 -13 12 -12 16 5 33 17 16 355 271 359 271 1 0 2 -97
2 -215z m-216 -400 c113 -38 208 -72 211 -77 3 -4 5 -257 5 -560 l-1 -553
-240 0 -240 0 0 618 c-1 611 0 619 20 633 11 8 24 13 30 11 5 -2 102 -35 215
-72z m-508 -522 c0 -315 -1 -595 -1 -621 l-1 -49 -240 0 -240 0 0 376 0 376
43 41 c44 43 77 115 77 170 0 30 13 42 168 158 92 69 173 125 181 124 11 -3
14 -96 13 -575z m-2452 481 c19 -2 55 -9 80 -14 25 -5 68 -12 95 -16 28 -4 53
-8 58 -10 4 -1 16 -2 27 -3 20 -1 20 -8 20 -554 l0 -554 -235 0 c-148 0 -238
4 -242 10 -7 11 -9 1105 -2 1110 2 2 18 15 36 29 29 23 36 25 80 17 26 -6 64
-12 83 -15z m590 -98 c19 -3 78 -12 130 -21 52 -9 109 -18 125 -21 82 -13 151
-28 155 -35 4 -6 5 -923 1 -965 -1 -7 -76 -11 -241 -11 l-240 0 0 527 c0 290
3 529 6 533 3 3 11 4 17 2 7 -2 28 -6 47 -9z m3085 -99 l220 -74 0 -439 0
-439 -237 -1 -238 -1 0 56 c-1 75 -1 896 -1 944 1 32 4 37 19 33 9 -3 116 -39
237 -79z m-2301 -32 c27 -3 85 -13 129 -21 45 -9 90 -16 100 -17 11 -1 27 -17
37 -38 10 -20 34 -48 53 -63 l35 -28 -2 -376 -1 -377 -240 0 -240 0 -1 465 c0
256 1 468 3 471 1 4 20 3 40 -1 21 -5 60 -11 87 -15z m-1820 -508 c0 -215 -2
-397 -2 -403 -2 -7 -65 -11 -202 -11 -110 0 -200 2 -200 3 0 4 401 804 403
804 1 0 2 -177 1 -393z m4782 319 l172 -57 16 -42 c9 -23 35 -62 58 -87 l43
-45 0 -250 0 -250 -243 -1 -242 -1 0 400 c0 315 3 398 13 395 6 -3 89 -31 183
-62z"/>
</g>
</svg>
